<svg width="100" height="100" viewBox="0 0 100 100" fill="none" xmlns="http://www.w3.org/2000/svg">
<g clip-path="url(#clip0_3_3313)">
<path d="M2.76399 5.298C4.22699 5.298 5.41299 4.112 5.41299 2.649C5.41299 1.186 4.22699 0 2.76399 0C1.30099 0 0.11499 1.186 0.11499 2.649C0.11499 4.112 1.30099 5.298 2.76399 5.298Z" fill="#FFBB6A"/>
<path d="M16.26 5.298C17.723 5.298 18.909 4.112 18.909 2.649C18.909 1.186 17.723 0 16.26 0C14.797 0 13.611 1.186 13.611 2.649C13.611 4.112 14.797 5.298 16.26 5.298Z" fill="#FFBB6A"/>
<path d="M29.7561 5.298C31.2191 5.298 32.4051 4.112 32.4051 2.649C32.4051 1.186 31.2191 0 29.7561 0C28.2931 0 27.1071 1.186 27.1071 2.649C27.1071 4.112 28.2931 5.298 29.7561 5.298Z" fill="#FFBB6A"/>
<path d="M43.252 5.298C44.715 5.298 45.901 4.112 45.901 2.649C45.901 1.186 44.715 0 43.252 0C41.789 0 40.603 1.186 40.603 2.649C40.603 4.112 41.789 5.298 43.252 5.298Z" fill="#FFBB6A"/>
<path d="M56.748 5.298C58.211 5.298 59.397 4.112 59.397 2.649C59.397 1.186 58.211 0 56.748 0C55.285 0 54.099 1.186 54.099 2.649C54.099 4.112 55.285 5.298 56.748 5.298Z" fill="#FFBB6A"/>
<path d="M70.244 5.298C71.707 5.298 72.893 4.112 72.893 2.649C72.893 1.186 71.707 0 70.244 0C68.781 0 67.595 1.186 67.595 2.649C67.595 4.112 68.781 5.298 70.244 5.298Z" fill="#FFBB6A"/>
<path d="M83.7401 5.298C85.2031 5.298 86.3891 4.112 86.3891 2.649C86.3891 1.186 85.2031 0 83.7401 0C82.2771 0 81.0911 1.186 81.0911 2.649C81.0911 4.112 82.2771 5.298 83.7401 5.298Z" fill="#FFBB6A"/>
<path d="M97.236 5.298C98.699 5.298 99.885 4.112 99.885 2.649C99.885 1.186 98.699 0 97.236 0C95.773 0 94.587 1.186 94.587 2.649C94.587 4.112 95.773 5.298 97.236 5.298Z" fill="#FFBB6A"/>
<path d="M2.76399 18.8271C4.22699 18.8271 5.41299 17.6411 5.41299 16.1781C5.41299 14.715 4.22699 13.5291 2.76399 13.5291C1.30099 13.5291 0.11499 14.715 0.11499 16.1781C0.11499 17.6411 1.30099 18.8271 2.76399 18.8271Z" fill="#FFBB6A"/>
<path d="M16.26 18.8271C17.723 18.8271 18.909 17.6411 18.909 16.1781C18.909 14.715 17.723 13.5291 16.26 13.5291C14.797 13.5291 13.611 14.715 13.611 16.1781C13.611 17.6411 14.797 18.8271 16.26 18.8271Z" fill="#FFBB6A"/>
<path d="M29.7561 18.8271C31.2191 18.8271 32.4051 17.6411 32.4051 16.1781C32.4051 14.715 31.2191 13.5291 29.7561 13.5291C28.2931 13.5291 27.1071 14.715 27.1071 16.1781C27.1071 17.6411 28.2931 18.8271 29.7561 18.8271Z" fill="#FFBB6A"/>
<path d="M43.252 18.8271C44.715 18.8271 45.901 17.6411 45.901 16.1781C45.901 14.715 44.715 13.5291 43.252 13.5291C41.789 13.5291 40.603 14.715 40.603 16.1781C40.603 17.6411 41.789 18.8271 43.252 18.8271Z" fill="#FFBB6A"/>
<path d="M56.748 18.8271C58.211 18.8271 59.397 17.6411 59.397 16.1781C59.397 14.715 58.211 13.5291 56.748 13.5291C55.285 13.5291 54.099 14.715 54.099 16.1781C54.099 17.6411 55.285 18.8271 56.748 18.8271Z" fill="#FFBB6A"/>
<path d="M70.244 18.8271C71.707 18.8271 72.893 17.6411 72.893 16.1781C72.893 14.715 71.707 13.5291 70.244 13.5291C68.781 13.5291 67.595 14.715 67.595 16.1781C67.595 17.6411 68.781 18.8271 70.244 18.8271Z" fill="#FFBB6A"/>
<path d="M83.7401 18.8271C85.2031 18.8271 86.3891 17.6411 86.3891 16.1781C86.3891 14.715 85.2031 13.5291 83.7401 13.5291C82.2771 13.5291 81.0911 14.715 81.0911 16.1781C81.0911 17.6411 82.2771 18.8271 83.7401 18.8271Z" fill="#FFBB6A"/>
<path d="M97.236 18.8271C98.699 18.8271 99.885 17.6411 99.885 16.1781C99.885 14.715 98.699 13.5291 97.236 13.5291C95.773 13.5291 94.587 14.715 94.587 16.1781C94.587 17.6411 95.773 18.8271 97.236 18.8271Z" fill="#FFBB6A"/>
<path d="M2.76399 32.356C4.22699 32.356 5.41299 31.17 5.41299 29.707C5.41299 28.244 4.22699 27.058 2.76399 27.058C1.30099 27.058 0.11499 28.244 0.11499 29.707C0.11499 31.17 1.30099 32.356 2.76399 32.356Z" fill="#FFBB6A"/>
<path d="M16.26 32.356C17.723 32.356 18.909 31.17 18.909 29.707C18.909 28.244 17.723 27.058 16.26 27.058C14.797 27.058 13.611 28.244 13.611 29.707C13.611 31.17 14.797 32.356 16.26 32.356Z" fill="#FFBB6A"/>
<path d="M29.7561 32.356C31.2191 32.356 32.4051 31.17 32.4051 29.707C32.4051 28.244 31.2191 27.058 29.7561 27.058C28.2931 27.058 27.1071 28.244 27.1071 29.707C27.1071 31.17 28.2931 32.356 29.7561 32.356Z" fill="#FFBB6A"/>
<path d="M43.252 32.356C44.715 32.356 45.901 31.17 45.901 29.707C45.901 28.244 44.715 27.058 43.252 27.058C41.789 27.058 40.603 28.244 40.603 29.707C40.603 31.17 41.789 32.356 43.252 32.356Z" fill="#FFBB6A"/>
<path d="M56.748 32.356C58.211 32.356 59.397 31.17 59.397 29.707C59.397 28.244 58.211 27.058 56.748 27.058C55.285 27.058 54.099 28.244 54.099 29.707C54.099 31.17 55.285 32.356 56.748 32.356Z" fill="#FFBB6A"/>
<path d="M70.244 32.356C71.707 32.356 72.893 31.17 72.893 29.707C72.893 28.244 71.707 27.058 70.244 27.058C68.781 27.058 67.595 28.244 67.595 29.707C67.595 31.17 68.781 32.356 70.244 32.356Z" fill="#FFBB6A"/>
<path d="M83.7401 32.356C85.2031 32.356 86.3891 31.17 86.3891 29.707C86.3891 28.244 85.2031 27.058 83.7401 27.058C82.2771 27.058 81.0911 28.244 81.0911 29.707C81.0911 31.17 82.2771 32.356 83.7401 32.356Z" fill="#FFBB6A"/>
<path d="M97.236 32.356C98.699 32.356 99.885 31.17 99.885 29.707C99.885 28.244 98.699 27.058 97.236 27.058C95.773 27.058 94.587 28.244 94.587 29.707C94.587 31.17 95.773 32.356 97.236 32.356Z" fill="#FFBB6A"/>
<path d="M2.76399 45.885C4.22699 45.885 5.41299 44.699 5.41299 43.236C5.41299 41.773 4.22699 40.587 2.76399 40.587C1.30099 40.587 0.11499 41.773 0.11499 43.236C0.11499 44.699 1.30099 45.885 2.76399 45.885Z" fill="#FFBB6A"/>
<path d="M16.26 45.885C17.723 45.885 18.909 44.699 18.909 43.236C18.909 41.773 17.723 40.587 16.26 40.587C14.797 40.587 13.611 41.773 13.611 43.236C13.611 44.699 14.797 45.885 16.26 45.885Z" fill="#FFBB6A"/>
<path d="M29.7561 45.885C31.2191 45.885 32.4051 44.699 32.4051 43.236C32.4051 41.773 31.2191 40.587 29.7561 40.587C28.2931 40.587 27.1071 41.773 27.1071 43.236C27.1071 44.699 28.2931 45.885 29.7561 45.885Z" fill="#FFBB6A"/>
<path d="M43.252 45.885C44.715 45.885 45.901 44.699 45.901 43.236C45.901 41.773 44.715 40.587 43.252 40.587C41.789 40.587 40.603 41.773 40.603 43.236C40.603 44.699 41.789 45.885 43.252 45.885Z" fill="#FFBB6A"/>
<path d="M56.748 45.885C58.211 45.885 59.397 44.699 59.397 43.236C59.397 41.773 58.211 40.587 56.748 40.587C55.285 40.587 54.099 41.773 54.099 43.236C54.099 44.699 55.285 45.885 56.748 45.885Z" fill="#FFBB6A"/>
<path d="M70.244 45.885C71.707 45.885 72.893 44.699 72.893 43.236C72.893 41.773 71.707 40.587 70.244 40.587C68.781 40.587 67.595 41.773 67.595 43.236C67.595 44.699 68.781 45.885 70.244 45.885Z" fill="#FFBB6A"/>
<path d="M83.7401 45.885C85.2031 45.885 86.3891 44.699 86.3891 43.236C86.3891 41.773 85.2031 40.587 83.7401 40.587C82.2771 40.587 81.0911 41.773 81.0911 43.236C81.0911 44.699 82.2771 45.885 83.7401 45.885Z" fill="#FFBB6A"/>
<path d="M97.236 45.885C98.699 45.885 99.885 44.699 99.885 43.236C99.885 41.773 98.699 40.587 97.236 40.587C95.773 40.587 94.587 41.773 94.587 43.236C94.587 44.699 95.773 45.885 97.236 45.885Z" fill="#FFBB6A"/>
<path d="M2.76399 59.413C4.22699 59.413 5.41299 58.227 5.41299 56.764C5.41299 55.301 4.22699 54.115 2.76399 54.115C1.30099 54.115 0.11499 55.301 0.11499 56.764C0.11499 58.227 1.30099 59.413 2.76399 59.413Z" fill="#FFBB6A"/>
<path d="M16.26 59.413C17.723 59.413 18.909 58.227 18.909 56.764C18.909 55.301 17.723 54.115 16.26 54.115C14.797 54.115 13.611 55.301 13.611 56.764C13.611 58.227 14.797 59.413 16.26 59.413Z" fill="#FFBB6A"/>
<path d="M29.7561 59.413C31.2191 59.413 32.4051 58.227 32.4051 56.764C32.4051 55.301 31.2191 54.115 29.7561 54.115C28.2931 54.115 27.1071 55.301 27.1071 56.764C27.1071 58.227 28.2931 59.413 29.7561 59.413Z" fill="#FFBB6A"/>
<path d="M43.252 59.413C44.715 59.413 45.901 58.227 45.901 56.764C45.901 55.301 44.715 54.115 43.252 54.115C41.789 54.115 40.603 55.301 40.603 56.764C40.603 58.227 41.789 59.413 43.252 59.413Z" fill="#FFBB6A"/>
<path d="M56.748 59.413C58.211 59.413 59.397 58.227 59.397 56.764C59.397 55.301 58.211 54.115 56.748 54.115C55.285 54.115 54.099 55.301 54.099 56.764C54.099 58.227 55.285 59.413 56.748 59.413Z" fill="#FFBB6A"/>
<path d="M70.244 59.413C71.707 59.413 72.893 58.227 72.893 56.764C72.893 55.301 71.707 54.115 70.244 54.115C68.781 54.115 67.595 55.301 67.595 56.764C67.595 58.227 68.781 59.413 70.244 59.413Z" fill="#FFBB6A"/>
<path d="M83.7401 59.413C85.2031 59.413 86.3891 58.227 86.3891 56.764C86.3891 55.301 85.2031 54.115 83.7401 54.115C82.2771 54.115 81.0911 55.301 81.0911 56.764C81.0911 58.227 82.2771 59.413 83.7401 59.413Z" fill="#FFBB6A"/>
<path d="M97.236 59.413C98.699 59.413 99.885 58.227 99.885 56.764C99.885 55.301 98.699 54.115 97.236 54.115C95.773 54.115 94.587 55.301 94.587 56.764C94.587 58.227 95.773 59.413 97.236 59.413Z" fill="#FFBB6A"/>
<path d="M2.76399 72.942C4.22699 72.942 5.41299 71.756 5.41299 70.293C5.41299 68.83 4.22699 67.644 2.76399 67.644C1.30099 67.644 0.11499 68.83 0.11499 70.293C0.11499 71.756 1.30099 72.942 2.76399 72.942Z" fill="#FFBB6A"/>
<path d="M16.26 72.942C17.723 72.942 18.909 71.756 18.909 70.293C18.909 68.83 17.723 67.644 16.26 67.644C14.797 67.644 13.611 68.83 13.611 70.293C13.611 71.756 14.797 72.942 16.26 72.942Z" fill="#FFBB6A"/>
<path d="M29.7561 72.942C31.2191 72.942 32.4051 71.756 32.4051 70.293C32.4051 68.83 31.2191 67.644 29.7561 67.644C28.2931 67.644 27.1071 68.83 27.1071 70.293C27.1071 71.756 28.2931 72.942 29.7561 72.942Z" fill="#FFBB6A"/>
<path d="M43.252 72.942C44.715 72.942 45.901 71.756 45.901 70.293C45.901 68.83 44.715 67.644 43.252 67.644C41.789 67.644 40.603 68.83 40.603 70.293C40.603 71.756 41.789 72.942 43.252 72.942Z" fill="#FFBB6A"/>
<path d="M56.748 72.942C58.211 72.942 59.397 71.756 59.397 70.293C59.397 68.83 58.211 67.644 56.748 67.644C55.285 67.644 54.099 68.83 54.099 70.293C54.099 71.756 55.285 72.942 56.748 72.942Z" fill="#FFBB6A"/>
<path d="M70.244 72.942C71.707 72.942 72.893 71.756 72.893 70.293C72.893 68.83 71.707 67.644 70.244 67.644C68.781 67.644 67.595 68.83 67.595 70.293C67.595 71.756 68.781 72.942 70.244 72.942Z" fill="#FFBB6A"/>
<path d="M83.7401 72.942C85.2031 72.942 86.3891 71.756 86.3891 70.293C86.3891 68.83 85.2031 67.644 83.7401 67.644C82.2771 67.644 81.0911 68.83 81.0911 70.293C81.0911 71.756 82.2771 72.942 83.7401 72.942Z" fill="#FFBB6A"/>
<path d="M97.236 72.942C98.699 72.942 99.885 71.756 99.885 70.293C99.885 68.83 98.699 67.644 97.236 67.644C95.773 67.644 94.587 68.83 94.587 70.293C94.587 71.756 95.773 72.942 97.236 72.942Z" fill="#FFBB6A"/>
<path d="M2.76399 86.471C4.22699 86.471 5.41299 85.285 5.41299 83.822C5.41299 82.359 4.22699 81.173 2.76399 81.173C1.30099 81.173 0.11499 82.359 0.11499 83.822C0.11499 85.285 1.30099 86.471 2.76399 86.471Z" fill="#FFBB6A"/>
<path d="M16.26 86.471C17.723 86.471 18.909 85.285 18.909 83.822C18.909 82.359 17.723 81.173 16.26 81.173C14.797 81.173 13.611 82.359 13.611 83.822C13.611 85.285 14.797 86.471 16.26 86.471Z" fill="#FFBB6A"/>
<path d="M29.7561 86.471C31.2191 86.471 32.4051 85.285 32.4051 83.822C32.4051 82.359 31.2191 81.173 29.7561 81.173C28.2931 81.173 27.1071 82.359 27.1071 83.822C27.1071 85.285 28.2931 86.471 29.7561 86.471Z" fill="#FFBB6A"/>
<path d="M43.252 86.471C44.715 86.471 45.901 85.285 45.901 83.822C45.901 82.359 44.715 81.173 43.252 81.173C41.789 81.173 40.603 82.359 40.603 83.822C40.603 85.285 41.789 86.471 43.252 86.471Z" fill="#FFBB6A"/>
<path d="M56.748 86.471C58.211 86.471 59.397 85.285 59.397 83.822C59.397 82.359 58.211 81.173 56.748 81.173C55.285 81.173 54.099 82.359 54.099 83.822C54.099 85.285 55.285 86.471 56.748 86.471Z" fill="#FFBB6A"/>
<path d="M70.244 86.471C71.707 86.471 72.893 85.285 72.893 83.822C72.893 82.359 71.707 81.173 70.244 81.173C68.781 81.173 67.595 82.359 67.595 83.822C67.595 85.285 68.781 86.471 70.244 86.471Z" fill="#FFBB6A"/>
<path d="M83.7401 86.471C85.2031 86.471 86.3891 85.285 86.3891 83.822C86.3891 82.359 85.2031 81.173 83.7401 81.173C82.2771 81.173 81.0911 82.359 81.0911 83.822C81.0911 85.285 82.2771 86.471 83.7401 86.471Z" fill="#FFBB6A"/>
<path d="M97.236 86.471C98.699 86.471 99.885 85.285 99.885 83.822C99.885 82.359 98.699 81.173 97.236 81.173C95.773 81.173 94.587 82.359 94.587 83.822C94.587 85.285 95.773 86.471 97.236 86.471Z" fill="#FFBB6A"/>
<path d="M2.76399 100C4.22699 100 5.41299 98.814 5.41299 97.351C5.41299 95.888 4.22699 94.702 2.76399 94.702C1.30099 94.702 0.11499 95.888 0.11499 97.351C0.11499 98.814 1.30099 100 2.76399 100Z" fill="#FFBB6A"/>
<path d="M16.26 100C17.723 100 18.909 98.814 18.909 97.351C18.909 95.888 17.723 94.702 16.26 94.702C14.797 94.702 13.611 95.888 13.611 97.351C13.611 98.814 14.797 100 16.26 100Z" fill="#FFBB6A"/>
<path d="M29.7561 100C31.2191 100 32.4051 98.814 32.4051 97.351C32.4051 95.888 31.2191 94.702 29.7561 94.702C28.2931 94.702 27.1071 95.888 27.1071 97.351C27.1071 98.814 28.2931 100 29.7561 100Z" fill="#FFBB6A"/>
<path d="M43.252 100C44.715 100 45.901 98.814 45.901 97.351C45.901 95.888 44.715 94.702 43.252 94.702C41.789 94.702 40.603 95.888 40.603 97.351C40.603 98.814 41.789 100 43.252 100Z" fill="#FFBB6A"/>
<path d="M56.748 100C58.211 100 59.397 98.814 59.397 97.351C59.397 95.888 58.211 94.702 56.748 94.702C55.285 94.702 54.099 95.888 54.099 97.351C54.099 98.814 55.285 100 56.748 100Z" fill="#FFBB6A"/>
<path d="M70.244 100C71.707 100 72.893 98.814 72.893 97.351C72.893 95.888 71.707 94.702 70.244 94.702C68.781 94.702 67.595 95.888 67.595 97.351C67.595 98.814 68.781 100 70.244 100Z" fill="#FFBB6A"/>
<path d="M83.7401 100C85.2031 100 86.3891 98.814 86.3891 97.351C86.3891 95.888 85.2031 94.702 83.7401 94.702C82.2771 94.702 81.0911 95.888 81.0911 97.351C81.0911 98.814 82.2771 100 83.7401 100Z" fill="#FFBB6A"/>
<path d="M97.236 100C98.699 100 99.885 98.814 99.885 97.351C99.885 95.888 98.699 94.702 97.236 94.702C95.773 94.702 94.587 95.888 94.587 97.351C94.587 98.814 95.773 100 97.236 100Z" fill="#FFBB6A"/>
</g>
<defs>
<clipPath id="clip0_3_3313">
<rect width="100" height="100" fill="white"/>
</clipPath>
</defs>
</svg>
