<svg width="242" height="70" viewBox="0 0 242 70" fill="none"
    xmlns="http://www.w3.org/2000/svg">
    <rect width="185" height="70" rx="35" fill="#9DDBDB"/>
    <path d="M20.6904 53V17.384H28.1784V53H20.6904ZM35.1279 53V27.176H42.6159V53H35.1279ZM38.8719 23.576C37.4959 23.576 36.3759 23.176 35.5119 22.376C34.6479 21.576 34.2159 20.584 34.2159 19.4C34.2159 18.216 34.6479 17.224 35.5119 16.424C36.3759 15.624 37.4959 15.224 38.8719 15.224C40.2479 15.224 41.3679 15.608 42.2319 16.376C43.0959 17.112 43.5279 18.072 43.5279 19.256C43.5279 20.504 43.0959 21.544 42.2319 22.376C41.3999 23.176 40.2799 23.576 38.8719 23.576ZM65.2614 26.792C67.3094 26.792 69.1334 27.208 70.7334 28.04C72.3654 28.84 73.6454 30.088 74.5734 31.784C75.5014 33.448 75.9654 35.592 75.9654 38.216V53H68.4774V39.368C68.4774 37.288 68.0134 35.752 67.0854 34.76C66.1894 33.768 64.9094 33.272 63.2454 33.272C62.0614 33.272 60.9894 33.528 60.0294 34.04C59.1014 34.52 58.3654 35.272 57.8214 36.296C57.3094 37.32 57.0534 38.632 57.0534 40.232V53H49.5654V27.176H56.7174V34.328L55.3734 32.168C56.3014 30.44 57.6294 29.112 59.3574 28.184C61.0854 27.256 63.0534 26.792 65.2614 26.792ZM95.0844 62.696C92.6524 62.696 90.3004 62.392 88.0284 61.784C85.7884 61.208 83.9164 60.328 82.4124 59.144L85.3884 53.768C86.4764 54.664 87.8524 55.368 89.5164 55.88C91.2124 56.424 92.8764 56.696 94.5084 56.696C97.1644 56.696 99.0844 56.104 100.268 54.92C101.484 53.736 102.092 51.976 102.092 49.64V45.752L102.572 39.272L102.476 32.744V27.176H109.58V48.68C109.58 53.48 108.332 57.016 105.836 59.288C103.34 61.56 99.7564 62.696 95.0844 62.696ZM93.9324 51.752C91.5324 51.752 89.3564 51.24 87.4044 50.216C85.4844 49.16 83.9324 47.704 82.7484 45.848C81.5964 43.96 81.0204 41.768 81.0204 39.272C81.0204 36.744 81.5964 34.552 82.7484 32.696C83.9324 30.808 85.4844 29.352 87.4044 28.328C89.3564 27.304 91.5324 26.792 93.9324 26.792C96.1084 26.792 98.0284 27.24 99.6924 28.136C101.356 29 102.652 30.36 103.58 32.216C104.508 34.04 104.972 36.392 104.972 39.272C104.972 42.12 104.508 44.472 103.58 46.328C102.652 48.152 101.356 49.512 99.6924 50.408C98.0284 51.304 96.1084 51.752 93.9324 51.752ZM95.4204 45.608C96.7324 45.608 97.9004 45.352 98.9244 44.84C99.9484 44.296 100.748 43.544 101.324 42.584C101.9 41.624 102.188 40.52 102.188 39.272C102.188 37.992 101.9 36.888 101.324 35.96C100.748 35 99.9484 34.264 98.9244 33.752C97.9004 33.208 96.7324 32.936 95.4204 32.936C94.1084 32.936 92.9404 33.208 91.9164 33.752C90.8924 34.264 90.0764 35 89.4684 35.96C88.8924 36.888 88.6044 37.992 88.6044 39.272C88.6044 40.52 88.8924 41.624 89.4684 42.584C90.0764 43.544 90.8924 44.296 91.9164 44.84C92.9404 45.352 94.1084 45.608 95.4204 45.608ZM127.446 53.384C125.302 53.384 123.382 52.968 121.686 52.136C120.022 51.304 118.726 50.04 117.798 48.344C116.87 46.616 116.406 44.424 116.406 41.768V27.176H123.894V40.664C123.894 42.808 124.342 44.392 125.238 45.416C126.166 46.408 127.462 46.904 129.126 46.904C130.278 46.904 131.302 46.664 132.198 46.184C133.094 45.672 133.798 44.904 134.31 43.88C134.822 42.824 135.078 41.512 135.078 39.944V27.176H142.566V53H135.462V45.896L136.758 47.96C135.894 49.752 134.614 51.112 132.918 52.04C131.254 52.936 129.43 53.384 127.446 53.384ZM165.343 53V47.96L164.863 46.856V37.832C164.863 36.232 164.367 34.984 163.375 34.088C162.415 33.192 160.927 32.744 158.911 32.744C157.535 32.744 156.175 32.968 154.831 33.416C153.519 33.832 152.399 34.408 151.471 35.144L148.783 29.912C150.191 28.92 151.887 28.152 153.871 27.608C155.855 27.064 157.871 26.792 159.919 26.792C163.855 26.792 166.911 27.72 169.087 29.576C171.263 31.432 172.351 34.328 172.351 38.264V53H165.343ZM157.471 53.384C155.455 53.384 153.727 53.048 152.287 52.376C150.847 51.672 149.743 50.728 148.975 49.544C148.207 48.36 147.823 47.032 147.823 45.56C147.823 44.024 148.191 42.68 148.927 41.528C149.695 40.376 150.895 39.48 152.527 38.84C154.159 38.168 156.287 37.832 158.911 37.832H165.775V42.2H159.727C157.967 42.2 156.751 42.488 156.079 43.064C155.439 43.64 155.119 44.36 155.119 45.224C155.119 46.184 155.487 46.952 156.223 47.528C156.991 48.072 158.031 48.344 159.343 48.344C160.591 48.344 161.711 48.056 162.703 47.48C163.695 46.872 164.415 45.992 164.863 44.84L166.015 48.296C165.471 49.96 164.479 51.224 163.039 52.088C161.599 52.952 159.743 53.384 157.471 53.384ZM188.834 53L203.81 19.4H211.49L226.514 53H218.354L206.066 23.336H209.138L196.802 53H188.834ZM196.322 45.8L198.386 39.896H215.666L217.778 45.8H196.322ZM230 53V19.4H237.776V53H230Z" fill="#008181"/>
</svg>
